<?xml version="1.0" encoding="UTF-8" ?>
<!DOCTYPE svg PUBLIC "-//W3C//DTD SVG 1.1//EN" "http://www.w3.org/Graphics/SVG/1.1/DTD/svg11.dtd">
<svg width="512pt" height="384pt" viewBox="0 0 512 384" version="1.1" xmlns="http://www.w3.org/2000/svg">
<g id="#212529ff">
<path fill="#212529" opacity="1.00" d=" M 101.19 0.00 L 410.51 0.00 C 435.02 1.43 459.04 11.15 477.11 27.86 C 498.57 47.21 511.42 75.56 512.00 104.44 L 512.00 281.23 C 511.16 298.03 506.70 314.71 498.37 329.37 C 488.81 346.49 474.43 360.86 457.32 370.42 C 442.94 378.60 426.60 382.94 410.14 384.00 L 103.64 384.00 C 78.63 383.21 53.99 373.45 35.45 356.62 C 14.26 337.85 1.43 310.38 0.00 282.16 L 0.00 102.03 C 0.54 95.71 1.17 89.38 2.63 83.19 C 8.51 56.64 25.12 32.75 47.79 17.79 C 63.58 7.18 82.27 1.29 101.19 0.00 M 95.41 43.67 C 81.49 46.11 68.50 53.42 59.10 63.97 C 48.48 75.58 42.53 91.28 42.67 107.01 C 42.66 163.68 42.66 220.35 42.67 277.02 C 42.64 288.63 45.73 300.29 51.83 310.19 C 63.23 329.59 85.45 341.96 107.96 341.34 C 207.32 341.32 306.67 341.36 406.02 341.32 C 423.30 341.23 440.29 333.65 452.02 320.99 C 462.87 309.46 469.23 293.84 469.31 277.99 C 469.36 221.32 469.32 164.65 469.34 107.98 C 469.43 99.50 467.97 90.99 464.82 83.10 C 455.66 59.43 431.40 42.55 405.93 42.68 C 306.62 42.65 207.31 42.68 108.00 42.66 C 103.78 42.64 99.56 42.92 95.41 43.67 Z" />
</g>
<g id="#63ccc4ff">
<path fill="#63ccc4" opacity="1.00" d=" M 147.34 85.44 C 218.92 85.20 290.51 85.40 362.09 85.33 C 369.23 85.12 376.34 88.73 380.30 94.68 C 385.12 101.60 385.20 111.41 380.47 118.39 C 376.52 124.50 369.30 128.22 362.04 128.00 C 293.38 128.00 224.72 128.00 156.05 128.00 C 150.96 127.96 145.61 128.45 140.85 126.23 C 132.28 122.65 126.80 113.03 128.20 103.83 C 129.31 94.24 137.71 86.16 147.34 85.44 Z" />
<path fill="#63ccc4" opacity="1.00" d=" M 143.36 171.52 C 145.50 170.88 147.74 170.67 149.97 170.67 C 220.63 170.67 291.29 170.67 361.95 170.66 C 367.88 170.49 373.83 172.85 377.95 177.13 C 383.25 182.48 385.31 190.76 383.12 197.97 C 381.25 204.64 375.87 210.16 369.28 212.27 C 365.33 213.63 361.10 213.30 357.01 213.33 C 288.01 213.33 219.02 213.33 150.03 213.33 C 143.66 213.52 137.27 210.76 133.15 205.87 C 128.50 200.57 126.85 192.87 128.84 186.11 C 130.76 179.19 136.46 173.48 143.36 171.52 Z" />
<path fill="#63ccc4" opacity="1.00" d=" M 144.45 256.57 C 146.25 256.13 148.12 256.01 149.97 256.00 C 220.65 256.00 291.33 256.00 362.02 256.00 C 368.30 255.82 374.59 258.52 378.70 263.28 C 383.65 268.83 385.30 277.06 382.88 284.08 C 380.69 290.83 374.88 296.26 368.00 297.97 C 364.75 298.86 361.35 298.64 358.03 298.67 C 288.66 298.66 219.30 298.67 149.94 298.67 C 143.02 298.87 136.16 295.48 132.10 289.89 C 127.99 284.35 126.88 276.75 129.21 270.26 C 131.53 263.50 137.48 258.15 144.45 256.57 Z" />
</g>
</svg>
