<?xml version="1.0" encoding="UTF-8" ?>
<!DOCTYPE svg PUBLIC "-//W3C//DTD SVG 1.1//EN" "http://www.w3.org/Graphics/SVG/1.1/DTD/svg11.dtd">
<svg width="256pt" height="256pt" viewBox="0 0 256 256" version="1.1" xmlns="http://www.w3.org/2000/svg">
<g id="#212529ff">
<path fill="#212529" opacity="1.00" d=" M 112.52 11.71 C 138.41 8.21 165.42 13.68 187.83 27.12 C 211.13 40.92 229.40 63.00 238.46 88.53 C 247.92 114.79 247.55 144.44 237.38 170.45 C 227.22 196.83 207.13 219.20 182.01 232.16 C 159.04 244.18 132.00 248.13 106.54 243.31 C 78.22 238.24 52.16 222.06 34.75 199.19 C 18.58 178.18 9.96 151.54 10.73 125.05 C 11.29 96.47 22.90 68.32 42.58 47.59 C 60.85 28.07 85.99 15.13 112.52 11.71 M 115.51 32.81 C 92.57 35.75 70.90 47.36 55.74 64.81 C 40.73 81.83 32.13 104.33 32.02 127.03 C 31.70 149.21 39.45 171.38 53.51 188.54 C 67.03 205.20 86.27 217.18 107.26 221.71 C 129.95 226.81 154.49 223.25 174.75 211.80 C 194.65 200.74 210.35 182.36 218.13 160.96 C 225.28 141.53 225.89 119.78 219.83 99.98 C 212.63 76.07 195.62 55.32 173.62 43.52 C 156.02 33.90 135.36 30.22 115.51 32.81 Z" />
</g>
<g id="#63ccc4ff">
<path fill="#63ccc4" opacity="1.00" d=" M 97.54 96.87 C 101.66 83.27 115.72 73.58 129.91 74.71 C 143.56 75.28 155.97 85.67 159.04 98.96 C 161.32 107.72 159.36 117.18 154.51 124.73 C 169.44 132.99 179.62 149.00 181.09 165.97 C 181.53 169.95 181.62 174.52 178.69 177.65 C 174.69 182.54 166.34 182.46 162.48 177.45 C 159.10 173.67 160.41 168.29 159.23 163.75 C 156.61 151.22 145.77 140.95 133.09 139.09 C 122.07 137.20 110.30 141.68 103.28 150.37 C 98.44 156.13 96.02 163.62 95.93 171.09 C 95.88 176.78 90.57 181.68 84.90 181.29 C 79.48 181.20 74.71 176.38 74.71 170.95 C 74.41 152.18 85.14 133.83 101.50 124.67 C 96.15 116.59 94.47 106.12 97.54 96.87 M 124.44 96.63 C 120.19 98.10 117.14 102.45 117.36 106.98 C 117.36 112.93 123.12 117.99 129.03 117.25 C 134.93 116.84 139.60 110.83 138.51 105.00 C 137.72 98.63 130.43 94.29 124.44 96.63 Z" />
</g>
</svg>
