<?xml version="1.0" encoding="UTF-8" ?>
<!DOCTYPE svg PUBLIC "-//W3C//DTD SVG 1.1//EN" "http://www.w3.org/Graphics/SVG/1.1/DTD/svg11.dtd">
<svg width="256pt" height="256pt" viewBox="0 0 256 256" version="1.1" xmlns="http://www.w3.org/2000/svg">
<g id="#212529ff">
<path fill="#212529" opacity="1.00" d=" M 111.62 0.00 L 123.11 0.00 C 146.74 1.45 170.03 9.65 188.75 24.26 C 211.55 41.66 227.58 67.69 232.69 95.93 C 237.73 122.87 232.93 151.52 219.28 175.29 C 204.52 201.34 179.46 221.37 150.71 229.79 C 125.86 237.23 98.55 236.07 74.43 226.53 C 45.57 215.29 21.63 192.12 9.51 163.61 C 3.91 150.87 1.07 137.11 0.00 123.28 L 0.00 111.09 C 0.75 104.35 1.38 97.56 3.00 90.95 C 9.71 61.24 28.64 34.57 54.40 18.33 C 71.46 7.33 91.42 1.28 111.62 0.00 M 111.36 21.53 C 90.59 22.72 70.35 31.02 54.64 44.65 C 38.70 58.32 27.46 77.36 23.30 97.95 C 18.66 120.39 22.31 144.46 33.66 164.39 C 45.66 185.82 66.19 202.33 89.77 209.27 C 112.17 216.07 137.08 214.25 158.23 204.18 C 177.81 195.02 194.05 178.99 203.54 159.57 C 213.80 138.81 216.07 114.29 209.90 91.98 C 203.80 69.40 189.03 49.36 169.38 36.71 C 152.33 25.60 131.66 20.23 111.36 21.53 Z" />
<path fill="#212529" opacity="1.00" d=" M 205.98 205.91 C 209.89 201.80 217.08 201.85 221.00 205.94 C 231.39 216.24 241.70 226.62 252.06 236.95 C 254.15 238.87 255.56 241.44 256.00 244.26 L 256.00 246.51 C 255.36 251.35 251.42 255.28 246.61 256.00 L 243.92 256.00 C 241.26 255.42 238.83 254.08 236.99 252.08 C 226.66 241.71 216.28 231.40 205.97 221.01 C 201.82 217.08 201.79 209.82 205.98 205.91 Z" />
</g>
<g id="#63ccc4ff">
<path fill="#63ccc4" opacity="1.00" d=" M 113.31 43.48 C 116.71 42.15 120.43 42.81 123.96 42.98 C 146.58 44.82 167.99 57.72 180.06 76.95 C 182.96 81.98 180.65 89.03 175.42 91.48 C 170.64 94.01 164.28 92.11 161.53 87.50 C 152.01 73.15 135.18 64.09 117.96 64.00 C 113.06 64.25 108.24 60.88 107.06 56.08 C 105.59 51.08 108.47 45.35 113.31 43.48 Z" />
</g>
</svg>
