<?xml version="1.0" encoding="UTF-8" ?>
<!DOCTYPE svg PUBLIC "-//W3C//DTD SVG 1.1//EN" "http://www.w3.org/Graphics/SVG/1.1/DTD/svg11.dtd">
<svg width="256pt" height="256pt" viewBox="0 0 256 256" version="1.1" xmlns="http://www.w3.org/2000/svg">
<g id="#212529ff">
<path fill="#212529" opacity="1.00" d=" M 126.58 0.00 L 129.29 0.00 C 142.51 0.37 155.52 5.72 165.01 14.96 C 174.75 24.32 180.73 37.50 181.23 51.02 C 181.47 59.56 181.26 68.10 181.34 76.64 C 200.10 81.45 215.46 97.22 219.65 116.14 C 223.97 137.10 228.06 158.11 232.30 179.09 C 235.59 193.82 236.27 209.92 230.15 224.02 C 222.17 242.76 202.74 255.72 182.38 256.00 L 73.72 256.00 C 54.40 255.71 35.77 244.12 27.16 226.80 C 19.90 212.70 20.14 195.97 23.36 180.80 C 27.68 159.37 31.89 137.91 36.26 116.49 C 40.33 97.39 55.81 81.54 74.66 76.62 C 75.18 62.03 72.72 46.68 78.77 32.88 C 86.45 13.78 106.01 0.41 126.58 0.00 M 96.21 49.90 C 95.76 58.14 96.10 66.41 96.01 74.67 C 117.34 74.67 138.66 74.66 159.99 74.67 C 159.90 66.41 160.25 58.13 159.78 49.87 C 158.41 34.13 143.86 21.00 128.04 21.36 C 112.19 20.97 97.56 34.11 96.21 49.90 M 81.47 96.76 C 69.61 99.27 59.67 109.06 57.12 120.93 C 52.64 142.91 48.32 164.91 43.89 186.89 C 42.32 193.83 42.32 201.06 43.15 208.08 C 45.41 222.77 59.07 234.57 73.93 234.63 C 109.65 234.71 145.36 234.66 181.07 234.66 C 192.80 234.84 204.25 227.99 209.61 217.56 C 214.05 209.45 213.77 199.81 212.86 190.89 C 208.28 167.57 203.60 144.27 198.88 120.98 C 195.88 106.49 181.79 95.48 167.01 96.00 C 141.00 96.00 115.00 96.00 89.00 96.00 C 86.47 96.01 83.94 96.20 81.47 96.76 Z" />
</g>
<g id="#63ccc4ff">
<path fill="#63ccc4" opacity="1.00" d=" M 102.29 118.30 C 109.02 114.92 117.64 120.64 117.34 128.11 C 117.33 133.77 122.35 138.81 128.05 138.64 C 133.68 138.75 138.64 133.77 138.65 128.16 C 138.58 122.88 142.75 117.94 148.06 117.44 C 153.76 116.57 159.48 121.19 159.91 126.92 C 160.80 141.76 149.72 156.07 135.22 159.15 C 121.60 162.57 106.38 155.63 99.87 143.23 C 97.33 138.54 95.97 133.21 96.03 127.87 C 96.02 123.82 98.59 119.93 102.29 118.30 Z" />
</g>
</svg>
